<svg xmlns="http://www.w3.org/2000/svg" viewBox="0 0 100 100">
<style type="text/css">
	.st0{fill:none;stroke:#000000;stroke-width:2;stroke-linecap:round;}
	.st1{fill:none;stroke:#000000;stroke-width:6;stroke-linecap:round;stroke-linejoin:round;}
</style>
<line class="st0" x1="91.7" y1="85" x2="91.7" y2="97"/>
<line class="st0" x1="85.7" y1="91" x2="97.7" y2="91"/>
<rect x="19.4" y="17.5" class="st1" width="61.3" height="65"/>
<path d="M70.6,29.5H29.4c-1.4,0-2.6,1.2-2.6,2.6v0c0,1.4,1.2,2.6,2.6,2.6h41.3c1.4,0,2.6-1.2,2.6-2.6v0
	C73.3,30.7,72.1,29.5,70.6,29.5z"/>
<path d="M70.6,40.8H29.4c-1.4,0-2.6,1.2-2.6,2.6v0c0,1.4,1.2,2.6,2.6,2.6h41.3c1.4,0,2.6-1.2,2.6-2.6v0
	C73.3,41.9,72.1,40.8,70.6,40.8z"/>
<path d="M70.6,52H29.4c-1.4,0-2.6,1.2-2.6,2.6v0c0,1.4,1.2,2.6,2.6,2.6h41.3c1.4,0,2.6-1.2,2.6-2.6v0C73.3,53.2,72.1,52,70.6,52z"/>
<path d="M44.9,63.3H29.4c-1.4,0-2.6,1.2-2.6,2.6l0,0c0,1.4,1.2,2.6,2.6,2.6h15.5c1.4,0,2.6-1.2,2.6-2.6l0,0
	C47.5,64.4,46.3,63.3,44.9,63.3z"/>
</svg>
