<svg xmlns="http://www.w3.org/2000/svg" viewBox="0 0 100 100">
<style type="text/css">
	.st0{fill:none;stroke:#000000;stroke-width:2;stroke-linecap:round;}
	.st1{fill:none;stroke:#000000;stroke-width:6;}
</style>
<line class="st0" x1="91.7" y1="85" x2="91.7" y2="97"/>
<line class="st0" x1="85.7" y1="91" x2="97.7" y2="91"/>
<path class="st1" d="M78.1,15H21.9c-0.6,0-1,0.4-1,1v68c0,0.6,0.4,1,1,1h56.3c0.6,0,1-0.4,1-1V16C79.1,15.4,78.7,15,78.1,15z"/>
<path d="M68.6,46.5h-26c-1.9,0-3.5,1.6-3.5,3.5v0c0,1.9,1.6,3.5,3.5,3.5h26c1.9,0,3.5-1.6,3.5-3.5v0C72.1,48.1,70.6,46.5,68.6,46.5z
	"/>
<path d="M68.6,61.3h-26c-1.9,0-3.5,1.6-3.5,3.5l0,0c0,1.9,1.6,3.5,3.5,3.5h26c1.9,0,3.5-1.6,3.5-3.5l0,0
	C72.1,62.8,70.6,61.3,68.6,61.3z"/>
<path d="M68.6,31.8h-26c-1.9,0-3.5,1.6-3.5,3.5v0c0,1.9,1.6,3.5,3.5,3.5h26c1.9,0,3.5-1.6,3.5-3.5v0C72.1,33.3,70.6,31.8,68.6,31.8z
	"/>
<path d="M32.1,46.5h-0.4c-1.9,0-3.5,1.6-3.5,3.5v0c0,1.9,1.6,3.5,3.5,3.5h0.4c1.9,0,3.5-1.6,3.5-3.5v0
	C35.6,48.1,34.1,46.5,32.1,46.5z"/>
<path d="M32.1,61.3h-0.4c-1.9,0-3.5,1.6-3.5,3.5l0,0c0,1.9,1.6,3.5,3.5,3.5h0.4c1.9,0,3.5-1.6,3.5-3.5l0,0
	C35.6,62.8,34.1,61.3,32.1,61.3z"/>
<path d="M32.1,31.8h-0.4c-1.9,0-3.5,1.6-3.5,3.5v0c0,1.9,1.6,3.5,3.5,3.5h0.4c1.9,0,3.5-1.6,3.5-3.5v0
	C35.6,33.3,34.1,31.8,32.1,31.8z"/>
</svg>
